<mxfile host="app.diagrams.net" modified="2024-07-08T07:50:28.673Z" agent="Mozilla/5.0 (Windows NT 10.0; Win64; x64) AppleWebKit/537.36 (KHTML, like Gecko) Chrome/126.0.0.0 Safari/537.36 Edg/126.0.0.0" etag="YkxhZ9QN2Dq4eFOuHwWY" version="24.6.4" type="device">
  <diagram name="Página-1" id="9LrpIAPdOAm3coKj-KV8">
    <mxGraphModel dx="878" dy="509" grid="1" gridSize="10" guides="1" tooltips="1" connect="1" arrows="1" fold="1" page="1" pageScale="1" pageWidth="827" pageHeight="1169" background="#FFFFFF" math="0" shadow="0">
      <root>
        <mxCell id="0" />
        <mxCell id="1" parent="0" />
        <mxCell id="aXrm9M7t7L0dvtJOlRcS-1" value="Estudiantes" style="rounded=0;whiteSpace=wrap;html=1;fillColor=#d5e8d4;strokeColor=#82b366;" parent="1" vertex="1">
          <mxGeometry x="217" y="220" width="120" height="60" as="geometry" />
        </mxCell>
        <mxCell id="aXrm9M7t7L0dvtJOlRcS-13" value="" style="edgeStyle=orthogonalEdgeStyle;rounded=0;orthogonalLoop=1;jettySize=auto;html=1;endArrow=none;endFill=0;fillColor=#f8cecc;strokeColor=#b85450;" parent="1" source="aXrm9M7t7L0dvtJOlRcS-2" target="aXrm9M7t7L0dvtJOlRcS-1" edge="1">
          <mxGeometry relative="1" as="geometry" />
        </mxCell>
        <mxCell id="aXrm9M7t7L0dvtJOlRcS-2" value="Dirección" style="ellipse;whiteSpace=wrap;html=1;fillColor=#dae8fc;strokeColor=#6c8ebf;fontStyle=0" parent="1" vertex="1">
          <mxGeometry x="237" y="140" width="80" height="50" as="geometry" />
        </mxCell>
        <mxCell id="aXrm9M7t7L0dvtJOlRcS-9" value="Fecha de nacimiento" style="ellipse;whiteSpace=wrap;html=1;fillColor=#dae8fc;strokeColor=#6c8ebf;fontStyle=4" parent="1" vertex="1">
          <mxGeometry x="334" y="140" width="80" height="50" as="geometry" />
        </mxCell>
        <mxCell id="aXrm9M7t7L0dvtJOlRcS-10" value="Nombre" style="ellipse;whiteSpace=wrap;html=1;fillColor=#dae8fc;strokeColor=#6c8ebf;fontStyle=4" parent="1" vertex="1">
          <mxGeometry x="140" y="140" width="80" height="50" as="geometry" />
        </mxCell>
        <mxCell id="aXrm9M7t7L0dvtJOlRcS-11" style="edgeStyle=orthogonalEdgeStyle;rounded=0;orthogonalLoop=1;jettySize=auto;html=1;entryX=0.089;entryY=0.028;entryDx=0;entryDy=0;entryPerimeter=0;endArrow=none;endFill=0;fillColor=#f8cecc;strokeColor=#b85450;" parent="1" source="aXrm9M7t7L0dvtJOlRcS-10" target="aXrm9M7t7L0dvtJOlRcS-1" edge="1">
          <mxGeometry relative="1" as="geometry" />
        </mxCell>
        <mxCell id="aXrm9M7t7L0dvtJOlRcS-15" style="edgeStyle=orthogonalEdgeStyle;rounded=0;orthogonalLoop=1;jettySize=auto;html=1;entryX=0.917;entryY=0;entryDx=0;entryDy=0;entryPerimeter=0;endArrow=none;endFill=0;fillColor=#f8cecc;strokeColor=#b85450;" parent="1" source="aXrm9M7t7L0dvtJOlRcS-9" target="aXrm9M7t7L0dvtJOlRcS-1" edge="1">
          <mxGeometry relative="1" as="geometry" />
        </mxCell>
        <mxCell id="aXrm9M7t7L0dvtJOlRcS-16" value="Cursos" style="rounded=0;whiteSpace=wrap;html=1;fillColor=#d5e8d4;strokeColor=#82b366;" parent="1" vertex="1">
          <mxGeometry x="547" y="220" width="120" height="60" as="geometry" />
        </mxCell>
        <mxCell id="aXrm9M7t7L0dvtJOlRcS-17" value="" style="edgeStyle=orthogonalEdgeStyle;rounded=0;orthogonalLoop=1;jettySize=auto;html=1;endArrow=none;endFill=0;fillColor=#f8cecc;strokeColor=#b85450;" parent="1" source="aXrm9M7t7L0dvtJOlRcS-18" target="aXrm9M7t7L0dvtJOlRcS-16" edge="1">
          <mxGeometry relative="1" as="geometry" />
        </mxCell>
        <mxCell id="aXrm9M7t7L0dvtJOlRcS-18" value="Descripción" style="ellipse;whiteSpace=wrap;html=1;fillColor=#dae8fc;strokeColor=#6c8ebf;" parent="1" vertex="1">
          <mxGeometry x="567" y="140" width="80" height="50" as="geometry" />
        </mxCell>
        <mxCell id="aXrm9M7t7L0dvtJOlRcS-23" value="Número de créditos" style="ellipse;whiteSpace=wrap;html=1;fillColor=#dae8fc;strokeColor=#6c8ebf;fontStyle=0" parent="1" vertex="1">
          <mxGeometry x="664" y="140" width="80" height="50" as="geometry" />
        </mxCell>
        <mxCell id="aXrm9M7t7L0dvtJOlRcS-24" value="Nombre" style="ellipse;whiteSpace=wrap;html=1;fillColor=#dae8fc;strokeColor=#6c8ebf;fontStyle=4" parent="1" vertex="1">
          <mxGeometry x="470" y="140" width="80" height="50" as="geometry" />
        </mxCell>
        <mxCell id="aXrm9M7t7L0dvtJOlRcS-25" style="edgeStyle=orthogonalEdgeStyle;rounded=0;orthogonalLoop=1;jettySize=auto;html=1;entryX=0.089;entryY=0.028;entryDx=0;entryDy=0;entryPerimeter=0;endArrow=none;endFill=0;fillColor=#f8cecc;strokeColor=#b85450;" parent="1" source="aXrm9M7t7L0dvtJOlRcS-24" target="aXrm9M7t7L0dvtJOlRcS-16" edge="1">
          <mxGeometry relative="1" as="geometry" />
        </mxCell>
        <mxCell id="aXrm9M7t7L0dvtJOlRcS-26" style="edgeStyle=orthogonalEdgeStyle;rounded=0;orthogonalLoop=1;jettySize=auto;html=1;entryX=0.917;entryY=0;entryDx=0;entryDy=0;entryPerimeter=0;endArrow=none;endFill=0;fillColor=#f8cecc;strokeColor=#b85450;" parent="1" source="aXrm9M7t7L0dvtJOlRcS-23" target="aXrm9M7t7L0dvtJOlRcS-16" edge="1">
          <mxGeometry relative="1" as="geometry" />
        </mxCell>
        <mxCell id="aXrm9M7t7L0dvtJOlRcS-44" style="edgeStyle=orthogonalEdgeStyle;rounded=0;orthogonalLoop=1;jettySize=auto;html=1;entryX=0.5;entryY=1;entryDx=0;entryDy=0;exitX=0;exitY=0.5;exitDx=0;exitDy=0;endArrow=none;endFill=0;fillColor=#f8cecc;strokeColor=#b85450;" parent="1" source="mahh103u4RMyHGoOP_3q-1" target="aXrm9M7t7L0dvtJOlRcS-1" edge="1">
          <mxGeometry relative="1" as="geometry">
            <mxPoint x="387" y="370" as="sourcePoint" />
            <mxPoint x="277" y="320" as="targetPoint" />
          </mxGeometry>
        </mxCell>
        <mxCell id="aXrm9M7t7L0dvtJOlRcS-47" style="edgeStyle=orthogonalEdgeStyle;rounded=0;orthogonalLoop=1;jettySize=auto;html=1;endArrow=none;endFill=0;fillColor=#f8cecc;strokeColor=#b85450;entryX=0.5;entryY=1;entryDx=0;entryDy=0;exitX=1;exitY=0.5;exitDx=0;exitDy=0;" parent="1" source="mahh103u4RMyHGoOP_3q-1" target="aXrm9M7t7L0dvtJOlRcS-16" edge="1">
          <mxGeometry relative="1" as="geometry">
            <mxPoint x="507" y="440" as="sourcePoint" />
            <mxPoint x="607" y="390" as="targetPoint" />
          </mxGeometry>
        </mxCell>
        <mxCell id="aXrm9M7t7L0dvtJOlRcS-42" style="edgeStyle=orthogonalEdgeStyle;rounded=0;orthogonalLoop=1;jettySize=auto;html=1;entryX=0.5;entryY=1;entryDx=0;entryDy=0;endArrow=none;endFill=0;fillColor=#f8cecc;strokeColor=#b85450;exitX=0.5;exitY=0;exitDx=0;exitDy=0;" parent="1" target="mahh103u4RMyHGoOP_3q-1" edge="1" source="aXrm9M7t7L0dvtJOlRcS-35">
          <mxGeometry relative="1" as="geometry">
            <mxPoint x="388.5" y="450" as="sourcePoint" />
            <mxPoint x="447" y="470" as="targetPoint" />
            <Array as="points">
              <mxPoint x="440" y="440" />
              <mxPoint x="440" y="440" />
            </Array>
          </mxGeometry>
        </mxCell>
        <mxCell id="aXrm9M7t7L0dvtJOlRcS-35" value="Fecha de inscripción" style="ellipse;whiteSpace=wrap;html=1;fillColor=#dae8fc;strokeColor=#6c8ebf;" parent="1" vertex="1">
          <mxGeometry x="400" y="450" width="80" height="50" as="geometry" />
        </mxCell>
        <mxCell id="aXrm9M7t7L0dvtJOlRcS-49" value="(0, N)" style="text;html=1;align=center;verticalAlign=middle;whiteSpace=wrap;rounded=0;" parent="1" vertex="1">
          <mxGeometry x="290" y="280" width="60" height="30" as="geometry" />
        </mxCell>
        <mxCell id="aXrm9M7t7L0dvtJOlRcS-52" value="(0, N)" style="text;html=1;align=center;verticalAlign=middle;whiteSpace=wrap;rounded=0;" parent="1" vertex="1">
          <mxGeometry x="540" y="280" width="60" height="30" as="geometry" />
        </mxCell>
        <mxCell id="mahh103u4RMyHGoOP_3q-1" value="Citan" style="rhombus;whiteSpace=wrap;html=1;fillColor=#fff2cc;strokeColor=#d6b656;" parent="1" vertex="1">
          <mxGeometry x="400" y="330" width="80" height="80" as="geometry" />
        </mxCell>
        <mxCell id="mahh103u4RMyHGoOP_3q-3" value="M : N" style="text;html=1;align=center;verticalAlign=middle;whiteSpace=wrap;rounded=0;" parent="1" vertex="1">
          <mxGeometry x="410" y="290" width="60" height="30" as="geometry" />
        </mxCell>
      </root>
    </mxGraphModel>
  </diagram>
</mxfile>
